#define ecuation_width 270
#define ecuation_height 42
static unsigned char ecuation_bits[] = {
   0xff, 0xff, 0xff, 0xff, 0xff, 0xff, 0xff, 0xff, 0xff, 0xff, 0xff, 0xff,
   0xff, 0xff, 0xff, 0xff, 0xff, 0xff, 0xff, 0xff, 0xff, 0xff, 0xff, 0xff,
   0xff, 0xff, 0xff, 0xff, 0xff, 0xff, 0xff, 0xff, 0xff, 0x3f, 0x01, 0x00,
   0x00, 0x00, 0x00, 0x00, 0x00, 0x00, 0x00, 0x00, 0x00, 0x00, 0x00, 0x00,
   0x00, 0x00, 0x00, 0x00, 0x00, 0x00, 0x00, 0x00, 0x00, 0x00, 0x00, 0x00,
   0x00, 0x00, 0x00, 0x00, 0x00, 0x00, 0x00, 0x20, 0x01, 0x00, 0x00, 0x00,
   0x00, 0x00, 0x00, 0x00, 0x00, 0x00, 0x00, 0x00, 0x00, 0x00, 0x00, 0x00,
   0x00, 0x00, 0x00, 0x00, 0x00, 0x00, 0x00, 0x00, 0x00, 0x00, 0x00, 0x00,
   0x00, 0x00, 0x00, 0x00, 0x00, 0x20, 0x01, 0x00, 0x00, 0x00, 0x00, 0x00,
   0x00, 0xe0, 0x01, 0x00, 0x00, 0x00, 0x00, 0x00, 0x00, 0x00, 0x00, 0x78,
   0x00, 0x00, 0x00, 0x00, 0x1e, 0x00, 0x00, 0x00, 0x00, 0x00, 0x00, 0x00,
   0x00, 0x00, 0xe0, 0x21, 0x01, 0x00, 0x00, 0x00, 0x00, 0x00, 0x00, 0xe0,
   0x01, 0x00, 0x00, 0x00, 0x00, 0x00, 0x00, 0x00, 0x00, 0x78, 0x00, 0x00,
   0x00, 0x00, 0x1e, 0x00, 0x00, 0x04, 0x00, 0x00, 0x00, 0x00, 0x00, 0x00,
   0xe0, 0x21, 0x01, 0x00, 0x00, 0x00, 0x00, 0x00, 0x00, 0x20, 0x00, 0x00,
   0x00, 0x00, 0x00, 0x00, 0x00, 0x00, 0x00, 0x40, 0x00, 0x00, 0x00, 0x00,
   0x02, 0x00, 0x00, 0x02, 0x00, 0x00, 0x00, 0x00, 0x00, 0x00, 0x02, 0x21,
   0x01, 0x00, 0x00, 0x00, 0x00, 0x00, 0x00, 0x20, 0x00, 0x00, 0x00, 0x00,
   0x00, 0x00, 0x00, 0x00, 0x00, 0x40, 0x00, 0x00, 0x00, 0x00, 0x02, 0x00,
   0x00, 0x03, 0x00, 0x00, 0x00, 0x00, 0x00, 0x00, 0x04, 0x21, 0x01, 0x00,
   0x00, 0x00, 0x00, 0x00, 0x00, 0x20, 0x00, 0x00, 0x00, 0x00, 0x00, 0x00,
   0x00, 0x00, 0x00, 0x40, 0x00, 0x00, 0x00, 0x00, 0x02, 0x00, 0x00, 0x01,
   0x00, 0x00, 0x00, 0x00, 0x00, 0x00, 0x0c, 0x21, 0x01, 0x00, 0x00, 0x00,
   0x00, 0x00, 0x00, 0x20, 0x00, 0x00, 0x00, 0x00, 0x00, 0x00, 0x00, 0x00,
   0x00, 0x40, 0x00, 0x00, 0x00, 0x00, 0x02, 0x00, 0x80, 0x00, 0x00, 0x00,
   0x00, 0x00, 0x00, 0x00, 0x08, 0x21, 0x01, 0x00, 0x00, 0x00, 0x00, 0x00,
   0x00, 0x20, 0x00, 0x00, 0x00, 0x00, 0x00, 0xf0, 0x03, 0xe0, 0x07, 0x40,
   0x00, 0x00, 0x00, 0x00, 0x02, 0x00, 0x80, 0xf8, 0x01, 0xf0, 0x03, 0x00,
   0x00, 0x00, 0x08, 0x21, 0x01, 0x00, 0x00, 0x00, 0x00, 0x00, 0x00, 0x20,
   0x00, 0x00, 0x00, 0x30, 0x00, 0xf0, 0x03, 0xe0, 0x07, 0x40, 0x00, 0x00,
   0x00, 0x00, 0x02, 0x00, 0x80, 0xf8, 0x01, 0xf0, 0x03, 0x00, 0x00, 0x00,
   0x08, 0x21, 0x01, 0x00, 0x80, 0x40, 0x00, 0x00, 0x00, 0x20, 0x80, 0x00,
   0x00, 0x40, 0x00, 0x10, 0x00, 0x20, 0x00, 0x40, 0x00, 0x00, 0x00, 0x00,
   0x02, 0x20, 0x80, 0x08, 0x00, 0x10, 0x00, 0x00, 0x00, 0x00, 0x08, 0x21,
   0x01, 0x00, 0x80, 0x61, 0x00, 0x00, 0x00, 0x20, 0x80, 0x00, 0xf8, 0x27,
   0x00, 0x10, 0x00, 0x20, 0x00, 0x40, 0x00, 0x00, 0x00, 0x00, 0x02, 0x20,
   0xc0, 0x08, 0x00, 0x10, 0x00, 0x00, 0x00, 0xff, 0x18, 0x21, 0x01, 0x00,
   0x00, 0x21, 0x00, 0x00, 0x00, 0x20, 0xc0, 0x00, 0x7c, 0x10, 0x00, 0x10,
   0x00, 0x20, 0x00, 0x40, 0x00, 0x00, 0x00, 0x00, 0x02, 0x30, 0x40, 0x08,
   0x00, 0x10, 0x00, 0x00, 0x80, 0x0f, 0x10, 0x21, 0x01, 0x00, 0x00, 0x33,
   0x00, 0x00, 0x00, 0x20, 0xc0, 0x00, 0xc6, 0x70, 0x00, 0xf0, 0xe0, 0xe3,
   0x11, 0x41, 0x00, 0x00, 0x3c, 0x00, 0x02, 0x30, 0x40, 0x78, 0xf0, 0xf1,
   0x88, 0x00, 0xc0, 0x18, 0x10, 0x21, 0x01, 0x00, 0x00, 0x1e, 0x00, 0x00,
   0x00, 0x20, 0x80, 0x00, 0x82, 0x01, 0x00, 0x10, 0x00, 0x20, 0xb0, 0x41,
   0x00, 0x00, 0x24, 0x00, 0x02, 0x20, 0x40, 0x08, 0x00, 0x10, 0xd8, 0x00,
   0x40, 0x30, 0x10, 0x21, 0x11, 0x08, 0x00, 0xcc, 0x03, 0x00, 0x00, 0x20,
   0x80, 0x00, 0x02, 0x01, 0x00, 0x10, 0x00, 0x20, 0x40, 0x40, 0x00, 0x00,
   0x22, 0x00, 0x02, 0x20, 0x40, 0x08, 0x00, 0x10, 0x20, 0x00, 0x40, 0x20,
   0x10, 0x21, 0x31, 0x0c, 0x00, 0x8c, 0x01, 0x00, 0x00, 0x20, 0x80, 0x00,
   0x86, 0x01, 0x00, 0x10, 0x00, 0x20, 0xa0, 0x40, 0x00, 0x00, 0x02, 0x00,
   0x02, 0x20, 0x40, 0x08, 0x00, 0x10, 0x50, 0x00, 0xc0, 0x30, 0x10, 0x21,
   0x21, 0x04, 0x00, 0x8c, 0x80, 0x67, 0xd6, 0x21, 0x80, 0x00, 0xcc, 0x00,
   0x00, 0xf0, 0x03, 0xe0, 0xa7, 0x40, 0x78, 0x34, 0x02, 0x1e, 0x02, 0x20,
   0x40, 0xf8, 0x01, 0xf0, 0x53, 0x00, 0x80, 0x19, 0x10, 0x21, 0x61, 0xc6,
   0x07, 0x8c, 0x43, 0xc8, 0x22, 0x22, 0xe0, 0x03, 0x78, 0x00, 0x20, 0xf0,
   0x03, 0xe0, 0xa7, 0x40, 0x84, 0x48, 0x0e, 0x21, 0x02, 0xf8, 0x40, 0xf8,
   0x01, 0xf0, 0x53, 0x80, 0x00, 0x0f, 0x10, 0x21, 0xc1, 0xc3, 0x07, 0x00,
   0x41, 0x88, 0x21, 0x22, 0x00, 0x00, 0x00, 0x00, 0x20, 0x00, 0x00, 0x00,
   0x40, 0x40, 0x84, 0x08, 0x02, 0x01, 0x02, 0x00, 0x40, 0x00, 0x00, 0x00,
   0x20, 0x80, 0x00, 0x00, 0x10, 0x21, 0x81, 0x01, 0xc0, 0xff, 0xc7, 0x87,
   0x21, 0x22, 0xfe, 0x1f, 0xff, 0xff, 0xf8, 0xf8, 0xff, 0xff, 0xff, 0x47,
   0x7c, 0x08, 0x02, 0x01, 0xe2, 0xff, 0x47, 0xfc, 0xff, 0xff, 0xff, 0xe3,
   0xe3, 0xff, 0x11, 0x21, 0x81, 0xc1, 0x07, 0x00, 0x40, 0x80, 0x21, 0x23,
   0x00, 0x00, 0x00, 0x00, 0x20, 0x00, 0x00, 0x00, 0x00, 0x40, 0x04, 0x08,
   0x02, 0x01, 0x02, 0x00, 0x40, 0x00, 0x00, 0x00, 0x00, 0x80, 0x00, 0x00,
   0x10, 0x21, 0x81, 0xc1, 0x07, 0x00, 0x40, 0x40, 0xe3, 0x20, 0x00, 0x00,
   0x00, 0x30, 0x20, 0x00, 0x00, 0x00, 0x00, 0x40, 0x04, 0x08, 0x02, 0x21,
   0x02, 0x00, 0x40, 0x00, 0x00, 0x00, 0x00, 0x80, 0x00, 0x00, 0x10, 0x21,
   0x81, 0x01, 0x00, 0x3c, 0x80, 0x67, 0x26, 0x20, 0xe0, 0x01, 0x00, 0x40,
   0x00, 0x00, 0x00, 0x00, 0x00, 0x40, 0x78, 0x08, 0x02, 0x1e, 0x02, 0xfe,
   0x43, 0x00, 0x00, 0x00, 0x00, 0x00, 0x00, 0x00, 0x10, 0x21, 0x01, 0x00,
   0x00, 0x62, 0x00, 0x00, 0x20, 0x20, 0x10, 0x03, 0xbc, 0x21, 0x00, 0x00,
   0xc0, 0x1b, 0x00, 0x40, 0x00, 0x00, 0x00, 0x00, 0x02, 0x02, 0x40, 0x00,
   0x00, 0x00, 0x00, 0x00, 0x80, 0x37, 0x10, 0x21, 0x01, 0x00, 0x00, 0x40,
   0x00, 0x00, 0x20, 0x20, 0x00, 0x02, 0x62, 0x12, 0x00, 0x00, 0x20, 0x26,
   0x00, 0x40, 0x00, 0x00, 0x00, 0x00, 0x02, 0xf2, 0x40, 0x00, 0x00, 0x00,
   0x00, 0x00, 0x40, 0x4c, 0x10, 0x21, 0x01, 0x00, 0x00, 0x40, 0x00, 0x00,
   0x20, 0x20, 0x00, 0x02, 0xb0, 0x73, 0x00, 0x00, 0x00, 0x3b, 0x00, 0x40,
   0x00, 0x00, 0x00, 0x00, 0x02, 0x89, 0xc1, 0x00, 0x80, 0x7f, 0x00, 0x00,
   0x00, 0x76, 0x10, 0x21, 0x01, 0x00, 0x00, 0x60, 0x00, 0x00, 0x20, 0x20,
   0x00, 0x03, 0x10, 0x00, 0x00, 0x00, 0x00, 0x01, 0x00, 0x40, 0x00, 0x00,
   0x00, 0x00, 0x22, 0x01, 0x81, 0x00, 0xc0, 0x07, 0x00, 0x00, 0x00, 0x02,
   0x10, 0x21, 0x01, 0x00, 0x00, 0x30, 0x00, 0x00, 0x00, 0x20, 0x80, 0x01,
   0x18, 0x00, 0x00, 0x00, 0x80, 0x01, 0x00, 0x40, 0x00, 0x00, 0x00, 0x00,
   0x22, 0x01, 0x81, 0x00, 0x60, 0x0c, 0x00, 0x00, 0x00, 0x03, 0x18, 0x21,
   0x01, 0x00, 0x00, 0x18, 0x00, 0x00, 0x00, 0x20, 0xc0, 0x00, 0x18, 0x00,
   0x00, 0x00, 0x80, 0x01, 0x00, 0x40, 0x00, 0x00, 0x00, 0x00, 0x52, 0x81,
   0x81, 0x00, 0x20, 0x18, 0x00, 0x00, 0x00, 0x03, 0x08, 0x21, 0x01, 0x00,
   0x00, 0x0c, 0x00, 0x00, 0x00, 0x20, 0x60, 0x00, 0x18, 0x03, 0x00, 0x00,
   0x80, 0x31, 0x00, 0x40, 0x00, 0x00, 0x00, 0x00, 0x42, 0xc1, 0x80, 0x01,
   0x20, 0x10, 0x00, 0x00, 0x00, 0x63, 0x08, 0x21, 0x01, 0x00, 0x00, 0x06,
   0x00, 0x00, 0x00, 0x20, 0x30, 0x00, 0x30, 0x03, 0x00, 0x00, 0x00, 0x33,
   0x00, 0x40, 0x00, 0x00, 0x00, 0x00, 0x42, 0x61, 0x00, 0x01, 0x60, 0x18,
   0x00, 0x00, 0x00, 0x66, 0x08, 0x21, 0x01, 0x00, 0x00, 0x7e, 0x00, 0x00,
   0x00, 0x20, 0xf0, 0x03, 0xe0, 0x01, 0x00, 0x00, 0x00, 0x1e, 0x00, 0x40,
   0x00, 0x00, 0x00, 0x00, 0xc2, 0x30, 0x00, 0x03, 0xc0, 0x0c, 0x00, 0x00,
   0x00, 0x3c, 0x08, 0x21, 0x01, 0x00, 0x00, 0x00, 0x00, 0x00, 0x00, 0x20,
   0x00, 0x00, 0x00, 0x00, 0x00, 0x00, 0x00, 0x00, 0x00, 0x40, 0x00, 0x00,
   0x00, 0x00, 0x82, 0x18, 0x00, 0x06, 0x80, 0x07, 0x00, 0x00, 0x00, 0x00,
   0x0c, 0x21, 0x01, 0x00, 0x00, 0x00, 0x00, 0x00, 0x00, 0x20, 0x00, 0x00,
   0x00, 0x00, 0x00, 0x00, 0x00, 0x00, 0x00, 0x40, 0x00, 0x00, 0x00, 0x00,
   0x82, 0xf8, 0x01, 0x00, 0x00, 0x00, 0x00, 0x00, 0x00, 0x00, 0x06, 0x21,
   0x01, 0x00, 0x00, 0x00, 0x00, 0x00, 0x00, 0x20, 0x00, 0x00, 0x00, 0x00,
   0x00, 0x00, 0x00, 0x00, 0x00, 0x40, 0x00, 0x00, 0x00, 0x00, 0x02, 0x00,
   0x00, 0x00, 0x00, 0x00, 0x00, 0x00, 0x00, 0x00, 0x03, 0x21, 0x01, 0x00,
   0x00, 0x00, 0x00, 0x00, 0x00, 0xe0, 0x01, 0x00, 0x00, 0x00, 0x00, 0x00,
   0x00, 0x00, 0x00, 0x78, 0x00, 0x00, 0x00, 0x00, 0x1e, 0x00, 0x00, 0x00,
   0x00, 0x00, 0x00, 0x00, 0x00, 0x00, 0xe0, 0x21, 0x01, 0x00, 0x00, 0x00,
   0x00, 0x00, 0x00, 0xe0, 0x01, 0x00, 0x00, 0x00, 0x00, 0x00, 0x00, 0x00,
   0x00, 0x78, 0x00, 0x00, 0x00, 0x00, 0x1e, 0x00, 0x00, 0x00, 0x00, 0x00,
   0x00, 0x00, 0x00, 0x00, 0xe0, 0x21, 0x01, 0x00, 0x00, 0x00, 0x00, 0x00,
   0x00, 0x00, 0x00, 0x00, 0x00, 0x00, 0x00, 0x00, 0x00, 0x00, 0x00, 0x00,
   0x00, 0x00, 0x00, 0x00, 0x00, 0x00, 0x00, 0x00, 0x00, 0x00, 0x00, 0x00,
   0x00, 0x00, 0x00, 0x20, 0x01, 0x00, 0x00, 0x00, 0x00, 0x00, 0x00, 0x00,
   0x00, 0x00, 0x00, 0x00, 0x00, 0x00, 0x00, 0x00, 0x00, 0x00, 0x00, 0x00,
   0x00, 0x00, 0x00, 0x00, 0x00, 0x00, 0x00, 0x00, 0x00, 0x00, 0x00, 0x00,
   0x00, 0x20, 0xff, 0xff, 0xff, 0xff, 0xff, 0xff, 0xff, 0xff, 0xff, 0xff,
   0xff, 0xff, 0xff, 0xff, 0xff, 0xff, 0xff, 0xff, 0xff, 0xff, 0xff, 0xff,
   0xff, 0xff, 0xff, 0xff, 0xff, 0xff, 0xff, 0xff, 0xff, 0xff, 0xff, 0x3f };
