#define HelpIcon_width 64
#define HelpIcon_height 64
#define HelpIcon_x_hot 0
#define HelpIcon_y_hot 63
static unsigned char HelpIcon_bits[] = {
   0x00, 0xe0, 0xff, 0xff, 0x00, 0x00, 0x00, 0x00, 0x00, 0x20, 0x00, 0x80,
   0x00, 0x00, 0x00, 0x00, 0x00, 0x20, 0x00, 0x90, 0x04, 0x00, 0x00, 0x00,
   0x00, 0x00, 0x00, 0xa0, 0x02, 0x00, 0x00, 0x00, 0x00, 0x00, 0x00, 0xc0,
   0x01, 0x00, 0x44, 0x00, 0xc0, 0x5d, 0x3a, 0x80, 0x80, 0x00, 0x44, 0x00,
   0x20, 0xc4, 0x12, 0x00, 0x40, 0x00, 0x6c, 0x00, 0x20, 0xcc, 0x13, 0x00,
   0x20, 0x00, 0x38, 0x00, 0x20, 0x44, 0x13, 0x80, 0xf0, 0xff, 0x11, 0x00,
   0xc0, 0x5d, 0x12, 0x80, 0x20, 0x00, 0x10, 0x00, 0x00, 0x00, 0x00, 0x80,
   0x40, 0x00, 0x90, 0x07, 0x00, 0x00, 0x00, 0x80, 0x80, 0x00, 0x10, 0x02,
   0x00, 0x00, 0x00, 0x80, 0x00, 0x00, 0x10, 0x01, 0x00, 0x00, 0x00, 0x80,
   0x00, 0x00, 0x00, 0x05, 0x00, 0x00, 0x00, 0xf0, 0x07, 0x00, 0x00, 0x02,
   0x00, 0x00, 0x00, 0x98, 0x0c, 0x00, 0x00, 0x00, 0x00, 0x00, 0x00, 0x84,
   0x10, 0x00, 0x00, 0x00, 0x00, 0x00, 0x00, 0x86, 0x30, 0x00, 0x00, 0x00,
   0x00, 0x00, 0x00, 0x82, 0x20, 0x00, 0x00, 0x00, 0x00, 0x00, 0x00, 0x83,
   0x60, 0x00, 0x00, 0x00, 0x00, 0x00, 0x00, 0x81, 0x40, 0x00, 0x00, 0x00,
   0x00, 0x00, 0x80, 0x81, 0xc0, 0x00, 0x00, 0x00, 0x00, 0x00, 0x80, 0x80,
   0x80, 0x00, 0x00, 0x00, 0x00, 0x00, 0x80, 0x80, 0x80, 0x00, 0x00, 0x00,
   0x00, 0x00, 0x80, 0xc0, 0x80, 0x00, 0x00, 0x00, 0x00, 0x00, 0xc0, 0xc0,
   0x80, 0x01, 0x00, 0x00, 0x00, 0x00, 0x40, 0xc0, 0x00, 0x01, 0x00, 0x00,
   0x00, 0x00, 0x40, 0xc0, 0x00, 0x01, 0x00, 0x00, 0x00, 0x00, 0x40, 0xc0,
   0x00, 0x01, 0x00, 0x00, 0x00, 0x00, 0x40, 0xc0, 0x00, 0x01, 0x00, 0x00,
   0x00, 0x00, 0x40, 0xc0, 0x00, 0x01, 0x00, 0x00, 0x00, 0x00, 0x40, 0xc0,
   0x00, 0x01, 0x00, 0x00, 0x00, 0x00, 0x60, 0xc0, 0x00, 0x03, 0x00, 0x00,
   0x00, 0x00, 0x20, 0xc0, 0x00, 0x02, 0x00, 0x00, 0x00, 0x00, 0x20, 0xc0,
   0x00, 0x02, 0x00, 0x00, 0x00, 0x00, 0x20, 0xc0, 0x00, 0x02, 0x00, 0x00,
   0x00, 0x00, 0x20, 0xe0, 0x00, 0x02, 0x00, 0x00, 0x00, 0x00, 0x20, 0xa0,
   0x00, 0x02, 0x00, 0x00, 0x10, 0x00, 0x20, 0xad, 0x00, 0x02, 0x00, 0x00,
   0x18, 0x00, 0xa0, 0xae, 0x00, 0x02, 0x00, 0x00, 0x18, 0x02, 0x20, 0xa2,
   0x00, 0x02, 0x00, 0x00, 0x10, 0x04, 0x30, 0xa1, 0x00, 0x06, 0x00, 0x00,
   0x10, 0x19, 0x10, 0xad, 0x00, 0x04, 0x00, 0x01, 0x90, 0x20, 0x12, 0xae,
   0x00, 0x04, 0x80, 0x01, 0x40, 0x40, 0x12, 0xa0, 0x00, 0x04, 0x80, 0x01,
   0x20, 0x80, 0x13, 0xb2, 0x04, 0x04, 0x00, 0x01, 0x90, 0x01, 0x13, 0x94,
   0x02, 0x04, 0x00, 0x11, 0x48, 0xc2, 0xf8, 0x9f, 0xff, 0x0c, 0x00, 0x09,
   0x40, 0x02, 0x08, 0x9c, 0x02, 0x08, 0x00, 0x04, 0xc0, 0x01, 0x08, 0x8a,
   0x04, 0x88, 0x20, 0x02, 0x40, 0x00, 0x0c, 0x8c, 0x00, 0x98, 0x18, 0x19,
   0x80, 0x03, 0x04, 0x84, 0x04, 0x94, 0x86, 0x24, 0x00, 0x00, 0x06, 0x86,
   0x02, 0xb8, 0x01, 0x24, 0x00, 0x00, 0x02, 0x82, 0xff, 0xbf, 0x01, 0x1c,
   0x00, 0x00, 0x03, 0x83, 0x02, 0x48, 0x06, 0x04, 0x00, 0x00, 0x81, 0x81,
   0x04, 0x44, 0x00, 0x38, 0x00, 0x80, 0xc1, 0x80, 0x00, 0xc0, 0x00, 0x00,
   0x00, 0xe0, 0x70, 0x80, 0x00, 0x80, 0x03, 0x00, 0x00, 0x3e, 0x1c, 0x80,
   0xf0, 0x03, 0x3f, 0x00, 0xff, 0xff, 0x07, 0x80, 0xd8, 0x00, 0xe0, 0xff,
   0x00, 0x00, 0x00, 0x00, 0x88, 0x00, 0x00, 0x00, 0x00, 0x00, 0x00, 0x00,
   0xd8, 0x00, 0x00, 0x00, 0x00, 0x00, 0x00, 0x00, 0x70, 0x00, 0x00, 0x00,
   0x00, 0x00, 0x00, 0x00, 0x00, 0x00, 0x00, 0x00};
