/* XPM */
static char * logobueno_xpm[] = {
"32 37 493 2",
"  	c None",
". 	c #FFFFFF",
"+ 	c #FCFFFF",
"@ 	c #FEFEFE",
"# 	c #3A382C",
"$ 	c #151306",
"% 	c #202016",
"& 	c #3B3E35",
"* 	c #FFFEFF",
"= 	c #FEFFFF",
"- 	c #FFFFFD",
"; 	c #FEFEFC",
"> 	c #FEFEFF",
", 	c #FDFFFC",
"' 	c #5C5950",
") 	c #9FA054",
"! 	c #72722A",
"~ 	c #C2C68B",
"{ 	c #C1C895",
"] 	c #5B5C4E",
"^ 	c #4A473E",
"/ 	c #606056",
"( 	c #FEFFFD",
"_ 	c #464236",
": 	c #B8B661",
"< 	c #918F3A",
"[ 	c #D6D992",
"} 	c #F3F6B3",
"| 	c #DCE0A5",
"1 	c #D8DBA6",
"2 	c #C1C495",
"3 	c #5B5C4A",
"4 	c #45473A",
"5 	c #59594F",
"6 	c #FDFFFE",
"7 	c #5C5A4E",
"8 	c #B5B263",
"9 	c #C9C365",
"0 	c #939144",
"a 	c #E4E9A6",
"b 	c #F7FEBB",
"c 	c #F4F9B9",
"d 	c #DBE0A6",
"e 	c #D5D69A",
"f 	c #B9B96F",
"g 	c #6E6956",
"h 	c #FFFFFB",
"i 	c #57563A",
"j 	c #BAB861",
"k 	c #85832E",
"l 	c #E3E9A3",
"m 	c #FBFDBE",
"n 	c #F8FFBC",
"o 	c #F9FEBC",
"p 	c #FAFDBA",
"q 	c #F9FAB6",
"r 	c #E8E98C",
"s 	c #BCBB69",
"t 	c #6F6A56",
"u 	c #58584C",
"v 	c #A6A459",
"w 	c #8F8A38",
"x 	c #D5D893",
"y 	c #F6FBB9",
"z 	c #FAFCBB",
"A 	c #F9FEBB",
"B 	c #FBFDBC",
"C 	c #F5FAAA",
"D 	c #E8E584",
"E 	c #B9B667",
"F 	c #6A6A52",
"G 	c #9D9E52",
"H 	c #979946",
"I 	c #CDCF8E",
"J 	c #D6D9A0",
"K 	c #D5DAA0",
"L 	c #D6DBA3",
"M 	c #DBE0A0",
"N 	c #F2F4AB",
"O 	c #B8B566",
"P 	c #595A4C",
"Q 	c #646142",
"R 	c #938D51",
"S 	c #3E3D28",
"T 	c #414232",
"U 	c #464737",
"V 	c #444734",
"W 	c #59583A",
"X 	c #C0BA6C",
"Y 	c #CBC76E",
"Z 	c #58563D",
"` 	c #424244",
" .	c #4E5038",
"..	c #999150",
"+.	c #4D4D2B",
"@.	c #434230",
"#.	c #BCC08E",
"$.	c #D6D9A2",
"%.	c #D3D999",
"&.	c #B8B669",
"*.	c #6B663C",
"=.	c #A09C5C",
"-.	c #424240",
";.	c #36341F",
">.	c #99974C",
",.	c #969239",
"'.	c #C1C370",
").	c #D9DDA0",
"!.	c #F8FCB2",
"~.	c #E9E582",
"{.	c #BBB966",
"].	c #676441",
"^.	c #525238",
"/.	c #A6A354",
"(.	c #8C8831",
"_.	c #CDCA6B",
":.	c #F4F6AD",
"<.	c #F8FDBB",
"[.	c #F7FAB5",
"}.	c #EFEC8F",
"|.	c #E6E47F",
"1.	c #BBBA6A",
"2.	c #6E6C55",
"3.	c #5A584B",
"4.	c #B3B464",
"5.	c #C6C163",
"6.	c #918D32",
"7.	c #DCDB7F",
"8.	c #F6FCB4",
"9.	c #F8FFBB",
"0.	c #F8FDBA",
"a.	c #F9FEBE",
"b.	c #F6F8AD",
"c.	c #EEEA86",
"d.	c #E9E17F",
"e.	c #BCB96A",
"f.	c #6C6C54",
"g.	c #FEFFFA",
"h.	c #58563F",
"i.	c #BFB961",
"j.	c #918E31",
"k.	c #CDCA6D",
"l.	c #F4F6AB",
"m.	c #FBFEBB",
"n.	c #F8FFB9",
"o.	c #F8FBB4",
"p.	c #EDED8D",
"q.	c #ECE77F",
"r.	c #E5E27B",
"s.	c #B8B767",
"t.	c #585B4A",
"u.	c #B8B568",
"v.	c #D3CD6D",
"w.	c #86802A",
"x.	c #D7D775",
"y.	c #F6FCB6",
"z.	c #FCFEBF",
"A.	c #FAFFBD",
"B.	c #F7F8AC",
"C.	c #EDEB87",
"D.	c #ECE980",
"E.	c #CBC56F",
"F.	c #434436",
"G.	c #464437",
"H.	c #CDC66E",
"I.	c #D7D46D",
"J.	c #868028",
"K.	c #F7FAB3",
"L.	c #F8FEBE",
"M.	c #FCFCBC",
"N.	c #EFE987",
"O.	c #EBE682",
"P.	c #CBC770",
"Q.	c #444535",
"R.	c #3A3A30",
"S.	c #B0AD60",
"T.	c #C4C05F",
"U.	c #7E7E26",
"V.	c #DBD479",
"W.	c #F8F9B3",
"X.	c #F9FFB9",
"Y.	c #F7FEBA",
"Z.	c #FAFFBC",
"`.	c #F5FBB1",
" +	c #EFE98B",
".+	c #CBC76C",
"++	c #5B5C54",
"@+	c #46473F",
"#+	c #414338",
"$+	c #2F2C23",
"%+	c #46492A",
"&+	c #7A7524",
"*+	c #817D24",
"=+	c #C7C86A",
"-+	c #E1E49D",
";+	c #E3E69F",
">+	c #E5EAA7",
",+	c #F6FBB8",
"'+	c #EEEA89",
")+	c #C9C86E",
"!+	c #FFFEFC",
"~+	c #6B6E5B",
"{+	c #ACB37D",
"]+	c #C2C389",
"^+	c #C2C189",
"/+	c #C2C485",
"(+	c #C6C165",
"_+	c #CBC563",
":+	c #8E8C35",
"<+	c #848330",
"[+	c #858432",
"}+	c #94923F",
"|+	c #E4EBA7",
"1+	c #F7FBB1",
"2+	c #EFEB8A",
"3+	c #ECE781",
"4+	c #CDC76F",
"5+	c #464438",
"6+	c #6A6B5D",
"7+	c #A3A671",
"8+	c #7A7D30",
"9+	c #71701E",
"0+	c #717020",
"a+	c #6F6E1E",
"b+	c #656620",
"c+	c #62631D",
"d+	c #716F22",
"e+	c #BAB561",
"f+	c #C3BD5F",
"g+	c #C6C25F",
"h+	c #C9C562",
"i+	c #92903D",
"j+	c #919447",
"k+	c #DADD96",
"l+	c #F7F9B8",
"m+	c #EEEA87",
"n+	c #EAE780",
"o+	c #6A6C5E",
"p+	c #A3A66F",
"q+	c #77772D",
"r+	c #605B09",
"s+	c #5B5904",
"t+	c #5A5906",
"u+	c #514E09",
"v+	c #191900",
"w+	c #191702",
"x+	c #1C1C02",
"y+	c #2D2D15",
"z+	c #494923",
"A+	c #7A7728",
"B+	c #908C31",
"C+	c #C9C466",
"D+	c #C5C565",
"E+	c #C5C379",
"F+	c #9E9E54",
"G+	c #DADD9A",
"H+	c #F2F8B0",
"I+	c #CCC76C",
"J+	c #413F33",
"K+	c #3F3C35",
"L+	c #ADAD77",
"M+	c #7B7C2C",
"N+	c #5F5C0B",
"O+	c #5B5906",
"P+	c #585707",
"Q+	c #444303",
"R+	c #171604",
"S+	c #424005",
"T+	c #5F5B14",
"U+	c #BBB75C",
"V+	c #D7D26E",
"W+	c #C8C866",
"X+	c #868126",
"Y+	c #8D8F3B",
"Z+	c #BABD6E",
"`+	c #9B9D52",
" @	c #CFD190",
".@	c #E8E481",
"+@	c #E6E37C",
"@@	c #403F2D",
"#@	c #58584E",
"$@	c #3A3B2D",
"%@	c #A7A75F",
"&@	c #5E5C07",
"*@	c #595704",
"=@	c #4B4A0A",
"-@	c #2F2E1A",
";@	c #131406",
">@	c #484707",
",@	c #3C3813",
"'@	c #696818",
")@	c #D2CE6D",
"!@	c #D0CA74",
"~@	c #CDC86D",
"{@	c #D2CC6C",
"]@	c #B9B760",
"^@	c #AFAD58",
"/@	c #9C9948",
"(@	c #B1B46F",
"_@	c #6B6D46",
":@	c #BBB567",
"<@	c #B6B364",
"[@	c #696A42",
"}@	c #C1C289",
"|@	c #C7CA91",
"1@	c #767850",
"2@	c #4C4D3D",
"3@	c #5C5B57",
"4@	c #6B6954",
"5@	c #96964C",
"6@	c #5E5C12",
"7@	c #575508",
"8@	c #4E4B3A",
"9@	c #2B2C1E",
"0@	c #5D5814",
"a@	c #9C9A47",
"b@	c #7A7A20",
"c@	c #BAB95D",
"d@	c #3E3D1F",
"e@	c #3E3A1F",
"f@	c #B3B05F",
"g@	c #3C381F",
"h@	c #B2B059",
"i@	c #9F9B42",
"j@	c #989B6C",
"k@	c #3A3C27",
"l@	c #535233",
"m@	c #BEBB6E",
"n@	c #EAE98D",
"o@	c #F3F4A8",
"p@	c #E1E2A0",
"q@	c #D7DBA0",
"r@	c #BDC091",
"s@	c #5C5E53",
"t@	c #57574B",
"u@	c #393722",
"v@	c #40400A",
"w@	c #34311E",
"x@	c #303026",
"y@	c #4F4C05",
"z@	c #615E11",
"A@	c #706E17",
"B@	c #BEB864",
"C@	c #3D3C20",
"D@	c #403C23",
"E@	c #B2AF60",
"F@	c #3E3D21",
"G@	c #3D3B22",
"H@	c #CBCA6D",
"I@	c #C2BE65",
"J@	c #3D3C27",
"K@	c #37392B",
"L@	c #A5AB7D",
"M@	c #ECEFA8",
"N@	c #F1EB8D",
"O@	c #EDEA89",
"P@	c #ECED8F",
"Q@	c #C2C493",
"R@	c #454543",
"S@	c #444442",
"T@	c #332F24",
"U@	c #474606",
"V@	c #3B3912",
"W@	c #686717",
"X@	c #CFCB6A",
"Y@	c #B2AF5E",
"Z@	c #D9D476",
"`@	c #B5AF61",
" #	c #B2B161",
".#	c #E6DE7C",
"+#	c #CDC96E",
"@#	c #474828",
"##	c #A1A477",
"$#	c #555741",
"%#	c #BFC690",
"&#	c #F1F4AD",
"*#	c #EFEC8D",
"=#	c #E7E47D",
"-#	c #BCBC72",
";#	c #6D6E5C",
">#	c #303024",
",#	c #585810",
"'#	c #938F45",
")#	c #7C7723",
"!#	c #B4AE64",
"~#	c #3D3D21",
"{#	c #D1CC71",
"]#	c #D6D06E",
"^#	c #7C7D31",
"/#	c #BFBF89",
"(#	c #2F2F23",
"_#	c #515145",
":#	c #C7CA93",
"<#	c #EEEDAA",
"[#	c #BDBE70",
"}#	c #6F6A54",
"|#	c #4A4908",
"1#	c #4A471A",
"2#	c #6E681C",
"3#	c #BEB661",
"4#	c #3D3D23",
"5#	c #B4AE60",
"6#	c #3F3B22",
"7#	c #CDC767",
"8#	c #90923E",
"9#	c #C5C68D",
"0#	c #404237",
"a#	c #707163",
"b#	c #AEB182",
"c#	c #6F6E5A",
"d#	c #59590F",
"e#	c #9E9945",
"f#	c #7B7B23",
"g#	c #BDAB69",
"h#	c #B5AD64",
"i#	c #DFDA76",
"j#	c #D0CB70",
"k#	c #CAC96D",
"l#	c #CAC665",
"m#	c #9F9D4A",
"n#	c #D5D98F",
"o#	c #BEC290",
"p#	c #5C5C54",
"q#	c #70716B",
"r#	c #2E2E26",
"s#	c #4B4509",
"t#	c #656811",
"u#	c #72721C",
"v#	c #BAB65D",
"w#	c #424125",
"x#	c #565330",
"y#	c #D4D170",
"z#	c #E8E37D",
"A#	c #CECC67",
"B#	c #A19C48",
"C#	c #D6D592",
"D#	c #C2C693",
"E#	c #726F66",
"F#	c #292927",
"G#	c #2E2A0D",
"H#	c #494909",
"I#	c #6C6A17",
"J#	c #BBBA60",
"K#	c #575330",
"L#	c #B6B062",
"M#	c #D5D072",
"N#	c #CDC769",
"O#	c #9E9D4A",
"P#	c #D6D795",
"Q#	c #C4C792",
"R#	c #707064",
"S#	c #FDFEFF",
"T#	c #54564B",
"U#	c #858348",
"V#	c #45431C",
"W#	c #676413",
"X#	c #C2BC5C",
"Y#	c #C1BC61",
"Z#	c #C9C363",
"`#	c #918F38",
" $	c #949140",
".$	c #D5D690",
"+$	c #C2C996",
"@$	c #6F6F63",
"#$	c #FEFDFF",
"$$	c #FEFFFB",
"%$	c #53533B",
"&$	c #A5A454",
"*$	c #7F7D28",
"=$	c #82822C",
"-$	c #878433",
";$	c #929343",
">$	c #E0E5A3",
",$	c #C5C893",
"'$	c #6F7163",
")$	c #FFFDFE",
"!$	c #5A5A4E",
"~$	c #D8D377",
"{$	c #E2E8A2",
"]$	c #E0E5A2",
"^$	c #DADBA2",
"/$	c #C0C794",
"($	c #707161",
"_$	c #FFFDFF",
":$	c #6E6C57",
"<$	c #B7B86A",
"[$	c #D4D89B",
"}$	c #D6DBA1",
"|$	c #C2C791",
"1$	c #5A5B4D",
"2$	c #47473F",
"3$	c #47473D",
"4$	c #5C5B56",
". . . . . . . . . + @ # $ % & * = = . * - - . ; . . . . . . . . ",
". . . . . . . . > , ' ) ! ~ { ] ^ / . ( ( - * - . . . . . . . . ",
". . . . . . . . - . _ : < [ } | 1 2 3 4 5 - . > . . . . . . . . ",
". . . . . . . . 6 . 7 8 9 0 a b b c d e f g . h . . . . . . . . ",
". . . . . . . . * . . i j k l m n o p q r s t . . . . . . . . . ",
". . . . . . . . . - . u v w x y z A B B C D E 5 . . . . . . . . ",
". . . . . . . . * ; . = F G H I J K L M N D O P . . . . . . . . ",
". . . . . . . . = . ; . . Q R S T U V W X Y Z * . . . . . . . . ",
". . . . . . . . . h . `  ...+.@.#.$.%.&.*.=.P = . - . . . . . . ",
". . . . . . . . = = -.;.>.,.'.).c o !.~.{.].. * . . @ . . . @ . ",
". . . . . . . . . * ^./.(._.:.<.o A [.}.|.1.2.- . > . . . . . . ",
". . . . . . . . * 3.4.5.6.7.8.9.0.o a.b.c.d.e.f.g.. . . . . . . ",
". . . . . . . . @ h.i.j.k.l.m.a.o n.b o.p.q.r.s.5 . . . . . > . ",
". . . . . . . . t.u.v.w.x.y.z.A A.<.A.B B.C.D.E.F.* . . . . . . ",
". . . . . . . . G.H.I.J.x.K.L.L.o M.b b o.N.O.P.Q.* . . . ; . . ",
". . . . . . . . R.S.T.U.V.W.L.X.Y.m.n Z.`. +q..+Q.* . . . - . . ",
"= - * * ++@+@+#+$+%+&+*+=+-+;+>+,+L.0.o y.'+q.)+F.@ ( . - - . . ",
". !+. ~+{+]+^+]+]+/+(+_+:+<+[+}+[ |+y.p 1+2+3+4+5+. > . . * > - ",
"- . 6+7+8+9+0+a+b+c+d+: e+f+g+h+i+j+k+l+o.m+n+Y G.h @ . . . . . ",
"> o+p+q+r+s+t+u+v+w+x+y+z+A+B+C+D+E+F+G+H+m+3+I+J+h * @ . . > . ",
"K+L+M+N+O+O+P+Q+R+S+Q+T+U+V+W+B+X+Y+Z+`+ @.@+@O @@#@. . . ( . . ",
"$@%@&+&@O+*@=@-@;@>@,@'@)@!@~@{@]@^@/@(@_@:@<@[@}@|@1@2@3@. - . ",
". 4@5@6@7@=@8@= 9@0@a@b@c@d@e@f@d@g@h@i@j@k@l@m@n@o@p@q@r@s@. . ",
"* @ t@u@v@w@* - x@y@z@A@B@C@D@E@F@G@H@I@J@K@L@M@N@O@P@N Q@++- . ",
"@ . - - R@S@. @ T@U@V@W@X@E@Y@Z@`@ #.#+#@###$#%#&#*#=#-#;#; . * ",
". @ . - - - . @ >#,#'#)#j F@e@!#C@~#{#]#^#/#(#_#:#<#[#}#- - ; * ",
". . . @ . . . . x@|#1#2#3#F@4#5#6#G@+#7#8#9#0#- a#b#c#* . . - = ",
". . . . @ . . . >#d#e#f#X@g#h#i#j#k#l#m#n#o#p#. > q#. - . * * - ",
". . . . @ . . . r#s#t#u#v#w#x#y#z#A#B#C#D#E#- . . @ . . - . . . ",
". . . . @ . . . F#G#H#I#J#K#L#M#N#O#P#Q#R#. S#- , . - @ = = . . ",
". . . @ . @ . . T#U#V#W#X#Y#Z#`# $.$+$@$#$$$$$- . . . . - 6 = . ",
". . . . @ . @ . - %$&$*$=$-$;$[ >$,$'$@ - )$* * . . . . * . #$- ",
". . . . . . . . - !$8 ~$-+{$]$^$/$($. . . . . . . . . . . . . . ",
". . . . . . . . . _$:$<$[$}$|$1$p#* . - . . . . . . . . . . . . ",
". . . . . . . . . . ( 7 2$3$4$- . . . . @ . . . . . . . . . . . ",
". . . . . . . . . . . . - * = . . . . . . . . . . . . . . . . . ",
". . . . . . . . . . . . - * = . . . . . . . . . . . . . . . . . "};
