/* XPM */
static char * verde_xpm[] = {
"77 100 15 1",
" 	c None",
".	c #FFFFFF",
"+	c #808080",
"@	c #000000",
"#	c #008000",
"$	c #008080",
"%	c #80FF80",
"&	c #808000",
"*	c #FFFF80",
"=	c #00FF80",
"-	c #00FF00",
";	c #80FF00",
">	c #FF8080",
",	c #80FFFF",
"'	c #00FFFF",
".............................................................................",
".............................................................................",
".............................................................................",
"...........................................++................................",
".........................................+@@+................................",
".......................................+@@##$................................",
".....................................%#@@###$................................",
"....................................&@@#####$................................",
"..................................&@#########................................",
"................................&#@##########................................",
"..............................*@@############................................",
"............................*#@##############................................",
"...........................&@##=#############................................",
".........................&@@###-#--####--####................................",
"........................######-=%%=#-----####................................",
"......................&@####--%%%%-%%-#=#####................................",
"....................&@####$$--=%%%%%%--######................................",
"..................*#@#####$#=%%%%%%%%%=######................................",
"................*&@#####%%=#=%%%%%%%%%%--####................................",
"...............+@#$###=;%%%%%%%%%%%%%%%%--###................................",
".............*#@#-%#+;%%%%%%%%%%%%%%%%;%--###................................",
"............&@##%%%#%%-##%%%%%%%%%%%%;---####................................",
"..........+@@##=%%-%%%##$%%%%%%%%%%%%;#######................................",
"........>@@#-=%%%%%%%%%%%%%%%%%%%%%%%;#######................................",
"......*&@##%%%%%%%%%%%%%%%%%%%%%%%%%-########................................",
".....&@##-%%%%%%%%%%%%%%%%%%%%%%%%%%#########................................",
"....&@####%%%%%%%-%%%%%%%%%%%%%%%%-#####-####................................",
"...%##=-###-%%%%%%%%%%%%%%%%%%%%;####$$==$$$$%%%.............................",
"...&########%%%%%%%%%%%%%%%%%%%###==$$$$$$===%%+$$%..........................",
"...%###+##==%%%%%%%%%%%%%%%%%=%%%%$$$$====,,,,%%$###%........................",
"...*###%%$##%%%%%%%%%%%%%%%%$$%%$$$$==%,,,....,%%%%%%%.......................",
"....###-%##%%%%%%%%%%%%,%%%#=%$$$='=,,,.............%#$=.....................",
"....+##-%=#%%%%%%%%%%%%%%$#=%$$=%%%,,..............++,,=$=%..................",
".....##-=%%%%%%%%%%%%%%%%=%%$$%'%%,..............*#+..%,%#%+.................",
".....####%%%%%%%%%%%%%%%+%%$%,,,..........%%....%#+....%==##%................",
".....*###%%%%%%%%%%%%%%%%+%%,,,.......%%%%,....&#%,,,..%=%#$+................",
"......+##%%%%%%%%%%%%%%%%%%%%%,....%%%%=%,...+#=%%,,..,%,%=##+...............",
"......*@#%%%%%%%%%%%%%%%%%%===%..%%%===%...+##=%,,...,%.,,%##$...............",
".......&#-%===%%%%%%%%%%%%$##%,%%%%%$=%.*+##$=%.%%..,,.,,%%#$................",
"........##=##=%%%%%%%%%%%%##$=%=$%%%%,%&##$%%%%.%*%%%%,.%%%=$................",
"........#####=%%%%=%%#%%%#####$$%%%,%###$%+++%%%%%%%%,..%%%=+................",
"........*######%%%=%%=%$######=,,%+@##$$%%$$$$%%%%%%,,..,,,%,................",
".........######=%&=%#%+######=%,+###$%%%,%$$$$$%%%,.....%%%%,................",
".........+@#####%##%#%######=%%@@##==%%,%=#$$$%%*%%+$+%%,%%$,................",
"..........#####$$#%%#%#####$%+@@#=$$#$=$#$$=%%+#####%%...,,$,................",
"..........%@######%%#######+#@##-###$$$$%%%+######=%,..*%%%$,................",
"...........#######%#########@#$#####=%+$&###$=%%+++%,,,%%%%%,................",
"...........+###%#=%-######@##=###=%+######$$$#$%=%%%%%*.%%%%&+...............",
"............###=;;%%###########$++@@##=,.%%%$#%%+%%%%++%.#$..................",
"............%##=-%%&#####@######@@##$$%%*%+%=$%%+=%%%%%..%,..................",
".............####=%%#######$#@#####$$##$###%.%%%=+%%%............**..........",
".............%###-%###############@####%%##%.%%%$#%%...*...........%*........",
"..............#############################%%%###=%..%**.%,........**%.......",
"..............%#################$####$#####$##==#%%%%%.*%%%,........*%+%.....",
"...............################$$%%%%%%%%=$===%+=%%%%%%%+%%.***....**%+#+%...",
"...............%############$###$,...........%%=-%%%%%%%%....*..*%%%+%++++...",
"................##########$=$$==%%..............#%,%%==%.%%%%%%+%%*%&&@@@$...",
"................%########%%%$=$=%%%*..***.**....,%%%%#=%+#+%.***+#@@@@@#+....",
".................######$%%%####==%...*%%%*..****.%$%+#$#$%%++@@@@@@@@@#%.....",
".................%####%.%%######++%++%%%%%%%%%%%,.*&#=%%&#@@@@@#@@@#$%.......",
"..................##$%.%%#####$+%%..*%%*%%%%%%%%+%%#%+@@@##@@@#@@@+%.........",
"..................*%,,%###$+%++++@@@@@@@@@@@########+.&@@@#&@#%@@#...........",
"..................*++$#######@@@@@@@@@###@######@@@@@@@@##@@@#%@@@...........",
".....++*%%%...**+#@@@##@@@#####@@@@@@@###########@@@@@#@*&@#$@###@...........",
"......+$+++++$##@@@@@@########@@@@@@@@#####@@######@@#@@@@#.*#@@#+...........",
"........%%+$+%......%+#####@@##@@@@@@@###@@##@#######@@@@@+.&@#&#%...........",
"...............................#@#@@@@&#@@##########$%#@#@@@@#.+@............",
"...............................&@@##@@@@@###########=,$##@@@@#.@@............",
"...............................*@##@@@@@#@########@#$%$####@@@@@+............",
"................................@@###@@#@#############@@###$##@@.............",
"................................&@###@@############$$%@@##@##$$%.............",
"................................%@###@@############$==###@@#@#@..............",
".................................@####@@###########$==@####@+$%..............",
".................................&@####@##########$$=$#@#@@@$+...............",
".................................*@#####@######-##$$$####@#$#................",
"..................................@@####@@########$$####@@#$.................",
"..................................+@####$@@#####$$######@#$..................",
"...................................@@######@@###$######@$$...................",
"...................................&@#####$#@@##$#######+....................",
"....................................@######%+@@######@$%.....................",
"....................................&@######%%#@@#####,......................",
".....................................@@######$%+#@@@#,.......................",
".....................................+@######$=%,%#@#........................",
"......................................#@#####$$=,=###,.......................",
".......................................@######$$,$###%.......................",
"........................................@###=$$$%%#$$%.......................",
"........................................%####$$$%%$#$%.......................",
".........................................*##=$$$,%##$%.......................",
"...........................................@#$$$+%$$#%.......................",
"............................................+##$+$$$$........................",
".............................................%##$$$$$........................",
"...............................................+##$$+........................",
".................................................+##.........................",
".............................................................................",
".............................................................................",
".............................................................................",
".............................................................................",
".............................................................................",
".............................................................................",
"............................................................................."};
